#!OML:ASF E:\Steps\Project 1\Capture day 1\Session 2\Subject.ASF
:FULLY-SPECIFIED
:DEGREES
257
root 8.91752 15.1595 13.0512 -139.45 -9.99218 160.798
lowerback -3.19593 -5.09147 0.0847895
upperback 3.07055 -6.8915 -0.162981
thorax 4.92979 -3.44334 -0.727184
lowerneck -7.61264 -6.85567 0.805378
upperneck 10.1777 -9.49369 -0.547209
head 4.68192 -4.71715 -0.937186
rclavicle -1.59028e-015 -3.26007e-014
rhumerus -23.7017 15.6887 -64.137
rradius 66.4304
rwrist -16.0451
rhand -4.6562 -56.9612
rfingers 7.12502
rthumb 21.1237 -445.83
lclavicle -1.59028e-015 -3.26007e-014
lhumerus -19.5415 -26.793 47.2503
lradius 45.3793
lwrist 7.26797
lhand -24.5324 -17.3569
lfingers 7.12502
lthumb 1.96316 12.6138
rfemur -78.578 -30.5152 -0.546664
rtibia 59.9373
rfoot -24.2951 -12.1376
rtoes -24.8658
lfemur -20.2467 -17.1207 6.34928
ltibia 24.8204
lfoot -17.9913 12.8325
ltoes -52.2693
258
root 8.93178 15.1427 12.9958 -139.054 -9.90655 160.965
lowerback -3.82145 -5.0989 0.944381
upperback 3.02376 -6.94698 -0.0187585
thorax 5.15163 -3.43274 -1.1101
lowerneck -7.81804 -6.90547 0.808043
upperneck 10.9428 -9.58339 -0.619363
head 4.48828 -4.76821 -0.903675
rclavicle 1.43125e-014 4.77083e-015
rhumerus -23.4657 16.2386 -63.8229
rradius 66.0125
rwrist -15.6372
rhand -4.86879 -56.5122
rfingers 7.12502
rthumb 20.9195 -445.404
lclavicle 1.43125e-014 4.77083e-015
lhumerus -19.3413 -27.0572 47.0065
lradius 45.7162
lwrist 7.28566
lhand -24.4734 -17.3774
lfingers 7.12502
lthumb 2.02014 12.5928
rfemur -79.1844 -30.8348 0.215616
rtibia 59.9591
rfoot -24.4482 -11.5809
rtoes -24.7895
lfemur -19.9467 -17.1561 6.52336
ltibia 24.0931
lfoot -17.3694 13.2533
ltoes -51.8426
259
root 8.96596 15.1416 12.9723 -138.991 -9.36069 160.67
lowerback -3.69907 -5.09717 0.882898
upperback 3.03718 -6.9426 -0.0241186
thorax 5.1029 -3.43487 -1.07035
lowerneck -7.34913 -6.87837 0.686047
upperneck 10.1402 -9.52239 -0.547916
head 4.62078 -4.74189 -0.905218
rclavicle 2.22639e-014 -2.3059e-014
rhumerus -23.2921 16.6394 -63.4963
rradius 65.7539
rwrist -15.512
rhand -4.72866 -56.546
rfingers 7.12502
rthumb 21.0541 -445.423
lclavicle 2.22639e-014 -2.3059e-014
lhumerus -19.0266 -27.3598 46.7097
lradius 45.9523
lwrist 7.25052
lhand -24.129 -17.6328
lfingers 7.12502
lthumb 2.35282 12.334
rfemur -79.5913 -30.8177 0.11887
rtibia 60.169
rfoot -24.6577 -11.3702
rtoes -24.5784
lfemur -19.6124 -17.3445 5.98552
ltibia 23.7903
lfoot -17.2075 13.4777
ltoes -50.9268
260
root 8.99726 15.1405 12.9431 -138.97 -8.92422 160.272
lowerback -3.51566 -5.111 0.826668
upperback 3.10665 -6.96274 -0.0451817
thorax 5.07526 -3.44981 -1.04874
lowerneck -7.44725 -7.11694 0.616713
upperneck 10.1385 -9.86501 -0.298985
head 4.65622 -4.89627 -0.837066
rclavicle 2.78299e-014 -4.85035e-014
rhumerus -23.14 16.9523 -63.1196
rradius 65.555
rwrist -15.1956
rhand -4.47844 -56.3073
rfingers 7.12502
rthumb 21.2945 -445.157
lclavicle 2.78299e-014 -4.85035e-014
lhumerus -18.5262 -27.6245 46.4489
lradius 46.0697
lwrist 6.92732
lhand -23.8758 -17.5517
lfingers 7.12502
lthumb 2.59729 12.4123
rfemur -79.8146 -30.9865 -0.0578773
rtibia 60.3985
rfoot -25.0126 -11.0704
rtoes -23.6907
lfemur -19.2837 -17.8769 5.40891
ltibia 23.5262
lfoot -17.266 13.6182
ltoes -49.4799
261
root 9.02788 15.1376 12.9127 -138.802 -8.60257 160.004
lowerback -3.55235 -5.13112 1.05769
upperback 3.21308 -7.00909 -0.0937618
thorax 5.1733 -3.46373 -1.23756
lowerneck -7.57708 -6.75847 0.905752
upperneck 9.89895 -9.34977 -0.690084
head 4.56015 -4.65275 -0.981061
rclavicle -7.95139e-015 -6.36111e-015
rhumerus -22.8597 17.2496 -62.8382
rradius 65.4073
rwrist -14.8687
rhand -4.19958 -56.0315
rfingers 7.12502
rthumb 21.5623 -444.851
lclavicle -7.95139e-015 -6.36111e-015
lhumerus -17.806 -27.7789 45.9637
lradius 46.1152
lwrist 6.6454
lhand -24.0544 -17.1713
lfingers 7.12502
lthumb 2.42484 12.7947
rfemur -80.1475 -31.1119 -0.0342933
rtibia 60.6035
rfoot -25.389 -10.8231
rtoes -22.8451
lfemur -19.1499 -18.2128 5.10237
ltibia 23.2005
lfoot -16.8145 13.8067
ltoes -48.4402
262
root 9.05992 15.1332 12.8834 -138.541 -8.38024 159.862
lowerback -3.73028 -5.19229 1.39646
upperback 3.26994 -7.11785 -0.0387496
thorax 5.29812 -3.503 -1.39504
lowerneck -7.88999 -6.70111 0.784752
upperneck 10.1726 -9.27388 -0.696198
head 4.73156 -4.61805 -0.983115
rclavicle 1.82882e-014 -7.15625e-015
rhumerus -22.566 17.7124 -62.5013
rradius 65.3297
rwrist -14.7515
rhand -4.11996 -55.8957
rfingers 7.12502
rthumb 21.6388 -444.707
lclavicle 1.82882e-014 -7.15625e-015
lhumerus -17.3378 -27.8292 45.5597
lradius 46.2327
lwrist 6.5266
lhand -24.127 -17.0447
lfingers 7.12502
lthumb 2.35468 12.9221
rfemur -80.5793 -31.1742 0.163865
rtibia 60.7767
rfoot -25.6519 -10.8605
rtoes -23.1135
lfemur -19.2052 -18.301 5.0333
ltibia 22.9463
lfoot -16.0585 14.2006
ltoes -49.1391
263
root 9.09361 15.1297 12.8553 -138.261 -8.22484 159.636
lowerback -3.87525 -5.29016 1.56608
upperback 3.28172 -7.26719 0.100316
thorax 5.38655 -3.57005 -1.37223
lowerneck -7.92932 -6.67539 0.825444
upperneck 10.2329 -9.224 -0.995946
head 4.74363 -4.6117 -1.09074
rclavicle -3.18055e-015 -7.95139e-015
rhumerus -22.2862 18.246 -62.0142
rradius 65.2466
rwrist -14.6257
rhand -4.20992 -56.0205
rfingers 7.12502
rthumb 21.5524 -444.841
lclavicle -3.18055e-015 -7.95139e-015
lhumerus -17.0331 -27.8375 45.3312
lradius 46.4277
lwrist 6.45802
lhand -23.8108 -17.0837
lfingers 7.12502
lthumb 2.66009 12.8795
rfemur -80.9928 -31.3455 0.308318
rtibia 60.9766
rfoot -25.8432 -10.949
rtoes -23.5538
lfemur -19.3887 -18.3976 4.96339
ltibia 22.8556
lfoot -15.4667 14.3953
ltoes -49.3679
264
root 9.12769 15.1297 12.8265 -138.024 -8.09372 159.312
lowerback -3.90309 -5.40658 1.66467
upperback 3.25035 -7.43233 0.207293
thorax 5.36707 -3.6495 -1.32981
lowerneck -7.62543 -6.469 1.22347
upperneck 9.91742 -8.48808 -1.81914
head 4.51275 -4.17739 -1.35253
rclavicle -6.83819e-014 5.64548e-014
rhumerus -22.1198 18.7666 -61.5256
rradius 65.1895
rwrist -14.4585
rhand -3.86716 -56.7221
rfingers 7.12502
rthumb 21.8815 -445.505
lclavicle -6.83819e-014 5.64548e-014
lhumerus -16.7134 -27.9489 45.0506
lradius 46.6927
lwrist 6.5851
lhand -23.225 -17.1431
lfingers 7.12502
lthumb 3.22585 12.8122
rfemur -81.17 -31.5397 0.226727
rtibia 60.9935
rfoot -25.9365 -11.0423
rtoes -23.7285
lfemur -19.6019 -18.6572 4.8225
ltibia 22.8239
lfoot -14.9307 14.4661
ltoes -48.5685
265
root 9.16461 15.1389 12.8053 -137.882 -7.86689 159.046
lowerback -3.60032 -5.42509 1.83702
upperback 3.26084 -7.46554 0.238164
thorax 5.18775 -3.66551 -1.3613
lowerneck -8.04769 -6.82201 1.08355
upperneck 9.9205 -9.01039 -1.39489
head 4.61916 -4.42332 -1.23999
rclavicle 1.59028e-014 2.06736e-014
rhumerus -21.9364 19.0375 -61.0567
rradius 65.0932
rwrist -14.4772
rhand -3.59773 -56.9668
rfingers 7.12502
rthumb 22.1402 -445.719
lclavicle 1.59028e-014 2.06736e-014
lhumerus -16.0594 -28.2453 44.5499
lradius 46.9513
lwrist 6.87002
lhand -22.8074 -16.9141
lfingers 7.12502
lthumb 3.62905 13.0347
rfemur -81.2742 -31.5398 0.100415
rtibia 60.9243
rfoot -25.9755 -11.1299
rtoes -23.6079
lfemur -19.7667 -18.785 4.66878
ltibia 22.8085
lfoot -14.0104 14.7152
ltoes -48.8787
266
root 9.20891 15.1554 12.7958 -137.832 -7.40906 158.777
lowerback -3.23049 -5.4221 1.91198
upperback 3.30498 -7.46039 0.114271
thorax 4.99827 -3.66561 -1.49007
lowerneck -7.76222 -6.64533 1.30245
upperneck 9.48384 -8.79145 -1.52243
head 4.38785 -4.32236 -1.27717
rclavicle -2.54444e-014 3.02153e-014
rhumerus -21.6968 19.3709 -60.822
rradius 64.853
rwrist -14.6371
rhand -4.38632 -55.9667
rfingers 7.12502
rthumb 21.3829 -444.807
lclavicle -2.54444e-014 3.02153e-014
lhumerus -15.4857 -28.5632 43.9293
lradius 47.0386
lwrist 6.54695
lhand -23.0956 -16.754
lfingers 7.12502
lthumb 3.35076 13.1994
rfemur -81.6012 -31.3084 -0.0673806
rtibia 61.1381
rfoot -26.0437 -11.1721
rtoes -22.9946
lfemur -19.7937 -18.8381 4.37157
ltibia 22.7785
lfoot -13.1361 14.9243
ltoes -48.8237
267
root 9.25327 15.1652 12.78 -137.771 -6.86256 158.449
lowerback -2.80449 -5.385 1.70579
upperback 3.32287 -7.39617 0.0726671
thorax 4.7976 -3.64835 -1.37211
lowerneck -7.86642 -6.63735 1.54125
upperneck 9.36389 -8.78756 -1.76792
head 4.34133 -4.32684 -1.39925
rclavicle -7.31528e-014 3.18055e-015
rhumerus -21.4715 19.6457 -60.3687
rradius 64.6614
rwrist -14.7453
rhand -5.20892 -54.6109
rfingers 7.12502
rthumb 20.5927 -443.539
lclavicle -7.31528e-014 3.18055e-015
lhumerus -14.9385 -28.9009 43.5745
lradius 47.0022
lwrist 5.74428
lhand -23.6877 -16.9523
lfingers 7.12502
lthumb 2.77892 13.0093
rfemur -81.9383 -31.0386 -0.378909
rtibia 61.3791
rfoot -26.122 -11.1963
rtoes -22.207
lfemur -19.6362 -19.1177 3.95442
ltibia 22.4973
lfoot -12.6604 15.2256
ltoes -47.1905
268
root 9.29237 15.1661 12.7553 -137.587 -6.45602 158.274
lowerback -2.72122 -5.32875 1.72077
upperback 3.36808 -7.32538 0.0954616
thorax 4.80099 -3.61442 -1.34684
lowerneck -8.09929 -6.75544 1.61266
upperneck 9.30612 -8.96932 -1.72329
head 4.36228 -4.415 -1.41652
rclavicle 5.88403e-014 -1.82882e-014
rhumerus -21.2369 19.7877 -59.8509
rradius 64.5221
rwrist -14.7287
rhand -5.09987 -53.8411
rfingers 7.12502
rthumb 20.6975 -442.757
lclavicle 5.88403e-014 -1.82882e-014
lhumerus -14.3467 -29.3653 43.0833
lradius 47.2049
lwrist 5.58269
lhand -24.2608 -17.4503
lfingers 7.12502
lthumb 2.22552 12.5179
rfemur -82.2922 -30.8172 -0.445191
rtibia 61.5045
rfoot -26.2146 -11.2058
rtoes -21.6026
lfemur -19.5285 -19.2134 3.80187
ltibia 22.0656
lfoot -12.0587 15.6385
ltoes -46.2858
